<svg xmlns="http://www.w3.org/2000/svg" width="1024" height="1024" viewBox="0 0 1024 1024"><path fill="currentColor" d="M504.716 180.213c39.022-2.041 93.717 11.023 117.703 45.197 6.714 9.566 9.058 25.599 19.591 32.15 12.542 7.802 29.528 7.118 43.666 10.105 10.124 2.139 19.961 5.299 29.612 9.146 47.44 18.906 94.643 64.818 93.195 119.118-.365 13.665-10.229 25.775-4.418 40.885 5.165 13.693 17.988 21.819 27.111 32.693 29.419 35.068 37.953 86.863 20.772 129.366-9.934 24.575-27.846 46.396-48.929 62.316-32.969 24.897-76.161 33.856-116.729 28.247-31.017-4.316-65.32-17.249-96.162-4.669-12.895 5.259-23.731 19.389-28.67 32.164-8.233 21.298-3.309 52 5.474 72.317 10.039 23.221 30.359 38.935 53.481 47.87 8.774 3.39 17.967 6.13 26.882 9.512-16.821-1.158-32.376-3.408-49.034-5.077-27.017-2.708-55.699-5.421-82.808-5.673-50.665-.056-91.857 6.957-141.619 11.388 5.134-2.173 11.726-4.301 17.132-6.323 20.924-7.828 39.642-16.968 54.588-34.154a88.6 88.6 0 0 0 21.825-66.213c-1.351-17.695-9.336-37.774-23.313-49.197-31.678-25.89-83.851-2.513-119.814.224-40.154 3.057-80.118-10.217-110.745-36.027-28.359-23.897-46.388-55.029-49.52-92.319-2.931-34.884 7.15-67.819 29.306-94.967 6.018-7.374 13.991-13.578 20.364-20.908 14.528-16.705 4.089-35.423 2.553-54.488-1.011-12.546 2.565-25.419 6.684-37.267 11.808-33.957 43.661-59.748 75.651-74.226 10.226-4.628 23.976-8.693 34.98-12.07 14.749-4.526 34.626-3.512 48.209-11.815 13.34-8.154 15.131-28.034 25.279-38.685 25.653-26.926 62.428-36.433 97.703-38.62"></path></svg>